<svg viewBox="0 0 24 24" xmlns="http://www.w3.org/2000/svg" fill-rule="evenodd" clip-rule="evenodd" stroke-linejoin="round" stroke-miterlimit="1.414"><path d="M11.75 2h.5C17.635 2 22 6.477 22 12s-4.365 10-9.75 10h-.5C6.365 22 2 17.523 2 12S6.365 2 11.75 2z" fill="#00001e" fill-opacity=".059"/><clipPath id="a"><path d="M12 12a3.332 3.332 0 0 0 3.333-3.333 3.332 3.332 0 1 0-6.666 0A3.332 3.332 0 0 0 12 12zm0 1.667c-2.225 0-6.667 1.116-6.667 3.333v1.667h13.334V17c0-2.217-4.442-3.333-6.667-3.333z"/></clipPath><g clip-path="url(#a)"><path fill="#00001e" fill-opacity=".439" d="M5 5h14v14H5z"/></g></svg>