<svg viewBox="0 0 24 24" xmlns="http://www.w3.org/2000/svg" xmlns:xlink="http://www.w3.org/1999/xlink" fill-rule="evenodd" clip-rule="evenodd" stroke-linejoin="round" stroke-miterlimit="1.414"><circle cx="12" cy="12" r="10" fill="#00001e" fill-opacity=".059"/><use xlink:href="#_Image1" width="36" height="34" transform="matrix(null,null,null,null,null,null)"/><clipPath id="a"><path d="M 17.9 15 A 4 4 0 0 1 14 18 h -4 a 4 4 0 0 1 -3.9 -3 A 1.3 1.3 0 0 1 5 13.8 v -1.5 a 1.3 1.3 0 0 1 1.1 -1.2 A 4 4 0 0 1 10 8 h 1.5 V 6.9 A 1 1 0 0 1 12 5 h 0.5 a 1 1 0 0 1 0.5 1.9 V 8 h 1 a 4 4 0 0 1 3.9 3 A 1.3 1.3 0 0 1 19 12.3 v 1.5 a 1.3 1.3 0 0 1 -1.1 1.2 z M 9.8 11.5 a 0.8 0.8 0 0 0 -0.8 0.8 v 1 a 0.8 0.8 0 0 0 1.5 0 v -1 a 0.8 0.8 0 0 0 -0.8 -0.8 z m 4.5 0 a 0.8 0.8 0 0 0 -0.8 0.8 v 1 a 0.8 0.8 0 0 0 1.5 0 v -1 a 0.8 0.8 0 0 0 -0.8 -0.8 z"/></clipPath><g clip-path="url(#a)"><path fill="#00001e" fill-opacity=".439" d="M 2.5 2.5 h 19 v 18 h -19 z"/></g></svg>