<svg id="Layer_1" xmlns="http://www.w3.org/2000/svg" viewBox="0 0 26 26"><style>.st0{fill-rule:evenodd;clip-rule:evenodd;fill:#4a4a4a}</style><path class="st0" d="M15.9 12.8c-.7 0-1.3.5-1.2 1.1 0 .6.6 1.1 1.3 1.1.7 0 1.2-.5 1.2-1.1-.1-.6-.7-1.1-1.3-1.1M12.8 20c2.2 0 4.1-1.5 4.3-3.5H8.6c.2 2 2 3.5 4.2 3.5m-3-5c.7 0 1.3-.5 1.3-1.1 0-.6-.6-1.1-1.2-1.1-.7 0-1.2.5-1.2 1.1-.1.6.4 1.1 1.1 1.1"/><path class="st0" d="M20.6 17.3h-2c-.4 2.4-2.7 4.3-5.6 4.3h-.4c-2.8 0-5.1-1.9-5.6-4.3H5v-6h2V7.6h5.8V5.4c-.6-.1-1.1-.6-1.1-1.2 0-.7.6-1.2 1.4-1.2s1.4.6 1.4 1.2-.5 1.1-1.1 1.2v2.2h5.4v3.6h1.9v6.1zM13 0C5.8 0 0 5.8 0 13s5.8 13 13 13 13-5.8 13-13S20.2 0 13 0z"/></svg>