<svg id="comet" xmlns="http://www.w3.org/2000/svg" viewBox="0 0 19.83 19.98"><defs><style>.cls-2{clip-path:url(#clip-path)}</style><clipPath id="clip-path" transform="translate(-2.01 -2.01)"><path fill="none" d="M2 2h19.84v20H2z"/></clipPath></defs><g class="cls-2"><path d="M13.48 7.3a3.07 3.07 0 1 1-3.07 3.06 3.06 3.06 0 0 1 3.07-3.06zm-6 1.1a6.34 6.34 0 1 1 8.36 7.8 6.73 6.73 0 0 1-1.19.32c-2.11.57-6.33 1.67-7.79 2a1 1 0 0 1-.5.13 1.05 1.05 0 0 1-1-1.43l1.93-8a7.51 7.51 0 0 1 .19-.82zm.13-3.89a8.31 8.31 0 1 1 11.6 11.88c-.38.35-6.44 5-6.44 5a1.83 1.83 0 0 1-.49.39 1.92 1.92 0 0 1-.89.22 1.88 1.88 0 0 1-1.87-1.88 1.23 1.23 0 0 1 0-.27c-1.06.26-2.09.51-2.92.73a2.68 2.68 0 0 1-.76.11 2.57 2.57 0 0 1-2.57-2.57 2.32 2.32 0 0 1 .07-.59l.73-3.17h-.19A1.88 1.88 0 0 1 2 12.48a1.81 1.81 0 0 1 .26-1 1.46 1.46 0 0 1 .26-.34S7.1 5 7.58 4.51z" transform="translate(-2.01 -2.01)" fill-rule="evenodd"/></g></svg>