<svg xmlns="http://www.w3.org/2000/svg" viewBox="0 0 17.78 18.82"><defs><clipPath id="a" transform="translate(-2.52 -2.33)"><path fill="none" d="M2 2h18.82v20H2z"/></clipPath></defs><g clip-path="url(#a)"><path d="M11.48 3.67a2.63 2.63 0 0 1 .45-1.47 2.09 2.09 0 0 0-1.5 2v1.66l1 .05V3.67zM10.48 15.17a2.08 2.08 0 0 0 1.5 2 2.63 2.63 0 0 1-.5-1.5v-3.12h-1v2.62zM13.07 12.55h-1v3.12a2.1 2.1 0 0 0 1.5 2 2.67 2.67 0 0 1-.45-1.48v-3.64zM13.07 3.14a2.6 2.6 0 0 1 .46-1.47 2.1 2.1 0 0 0-1.5 2v2.27l1 .05V3.14zM1.29 2.47A2.6 2.6 0 0 0 0 4.67v10a2.6 2.6 0 0 0 1.29 2.24 3 3 0 0 1-.24-1.24v-12a3 3 0 0 1 .24-1.2zM2.62 2.67a3.17 3.17 0 0 1 .23-1.2 2.63 2.63 0 0 0-1.28 2.2v12a2.6 2.6 0 0 0 1.71 2.46 3.14 3.14 0 0 1-.66-1.92z"/><path d="M17.78 16.21a2.09 2.09 0 0 1-4.18 0v-4.18H8.37v4.18a2.62 2.62 0 1 1-5.23 0V2.67a2.62 2.62 0 1 1 5.23 0v3.61l5.23.26v-3.4a2.09 2.09 0 0 1 4.18 0v13.07z"/></g></svg>