<svg width="24" height="24" xmlns="http://www.w3.org/2000/svg"><path d="M8.872 10.524l.297.556c.294.551.857 1.251 1.688 2.082.832.832 1.527 1.397 2.072 1.694l.548.305 2.11-1.36c.33-.197.708-.294 1.118-.294.436 0 .836.125 1.172.372l4.009 2.897a2.1 2.1 0 0 1 .86 1.572c.043.66-.212 1.24-.717 1.661l-2.573 2.238-.01.008c-.533.448-1.182.594-1.885.424-1.54-.404-3.01-.951-4.405-1.641-2.332-1.137-4.331-2.538-5.995-4.201-1.665-1.666-3.053-3.668-4.157-5.991-.761-1.537-1.323-3.007-1.688-4.423-.17-.7-.01-1.354.456-1.861l2.234-2.563c.4-.513.972-.77 1.64-.748.67.022 1.226.324 1.589.857l2.884 4.034c.546.756.57 1.594.068 2.304l-1.315 2.078z" stroke="#FFF" stroke-width="1.5" fill="none" fill-rule="evenodd"/></svg>